<svg xmlns="http://www.w3.org/2000/svg" width="40" height="40" fill="none"><path stroke="#fff" stroke-linecap="round" stroke-linejoin="round" stroke-width="4" d="M23.885 26.567 26.1 24.35a3.67 3.67 0 0 1 4.022-.806c.448.187.854.461 1.195.806l2.6 2.6a3.664 3.664 0 0 1 0 5.217l-1.183 1.2a5.5 5.5 0 0 1-6.367 1.05A48.215 48.215 0 0 1 5.585 13.65 5.483 5.483 0 0 1 6.65 7.284l1.184-1.2a3.7 3.7 0 0 1 5.216 0L15.668 8.7a3.7 3.7 0 0 1 0 5.217l-2.217 2.217a50.138 50.138 0 0 0 4.817 5.6 48.102 48.102 0 0 0 5.567 4.783l.05.05Z"/></svg>